# xmcd
#
# Track frame offsets: 
#        150
#        6816
#        18888
#        32480
#        47272
#        58335
#        62778
#        77377
#        87829
#        96085
#        111412
#        124402
#        134512
#        145982
#        158026
#        171280
#        178885
#        191060
#
# Disc length: 2586 seconds
#
# Revision: 0
# Processed by: cddbd v1.5.2PL0 Copyright (c) Steve Scherf et al.
# Submitted via: ExactAudioCopy v0.99pb5
#
DISCID=f30a1812
DTITLE=Алексей Заев - Акустика №3. Странгуляционная борозда
DYEAR=2000
DGENRE=Заев
TTITLE0=Арфист
TTITLE1=Боги
TTITLE2=Давай
TTITLE3=Помойка
TTITLE4=Голоса
TTITLE5=Гостиницы
TTITLE6=Хэй хэй хэй хэй
TTITLE7=Мимо
TTITLE8=Моя молодость...
TTITLE9=О,какими же молодыми очутились мы на острове голом
TTITLE10=Настроение
TTITLE11=Я не спал...
TTITLE12=Без названия
TTITLE13=Оптимизм
TTITLE14=Осеннее решение
TTITLE15=Осеняя песня 1
TTITLE16=Перерождение
TTITLE17=Песня
EXTD=
EXTT0=
EXTT1=
EXTT2=
EXTT3=
EXTT4=
EXTT5=
EXTT6=
EXTT7=
EXTT8=
EXTT9=
EXTT10=
EXTT11=
EXTT12=
EXTT13=
EXTT14=
EXTT15=
EXTT16=
EXTT17=
PLAYORDER=
